HIERARCHY
ROOT Hips
{
  OFFSET 196.326 95.9168 97.7182
  CHANNELS 6 Xposition Yposition Zposition Zrotation Xrotation Yrotation
  JOINT LeftUpLeg
  {
    OFFSET 8.64259 1.95398 -2.38835
    CHANNELS 3 Zrotation Xrotation Yrotation
    JOINT LeftLeg
    {
      OFFSET 43.7702 0 0
      CHANNELS 3 Zrotation Xrotation Yrotation
      JOINT LeftFoot
      {
        OFFSET 40.6238 0 0
        CHANNELS 3 Zrotation Xrotation Yrotation
        JOINT LeftToeBase
        {
          OFFSET 12.7242 0 0
          CHANNELS 3 Zrotation Xrotation Yrotation
          End Site
          {
            OFFSET 0 0 0
          }
        }
      }
    }
  }
  JOINT RightUpLeg
  {
    OFFSET -8.2249 1.95398 -2.59336
    CHANNELS 3 Zrotation Xrotation Yrotation
    JOINT RightLeg
    {
      OFFSET 43.5653 0 0
      CHANNELS 3 Zrotation Xrotation Yrotation
      JOINT RightFoot
      {
        OFFSET 40.6238 0 0
        CHANNELS 3 Zrotation Xrotation Yrotation
        JOINT RightToeBase
        {
          OFFSET 12.7242 0 0
          CHANNELS 3 Zrotation Xrotation Yrotation
          End Site
          {
            OFFSET 0 0 0
          }
        }
      }
    }
  }
  JOINT Spine
  {
    OFFSET 0.165834 0.87714 6.61349
    CHANNELS 3 Zrotation Xrotation Yrotation
    JOINT Spine1
    {
      OFFSET 7.38963 1.71661e-005 0
      CHANNELS 3 Zrotation Xrotation Yrotation
      JOINT Spine2
      {
        OFFSET 11.9445 1.14441e-005 0
        CHANNELS 3 Zrotation Xrotation Yrotation
        JOINT Spine3
        {
          OFFSET 14.7254 4.19617e-005 0
          CHANNELS 3 Zrotation Xrotation Yrotation
          JOINT Spine4
          {
            OFFSET 10.9679 0 0
            CHANNELS 3 Zrotation Xrotation Yrotation
            JOINT RightShoulder
            {
              OFFSET 2.46616 -1.6653 3.69651
              CHANNELS 3 Zrotation Xrotation Yrotation
              JOINT RightArm
              {
                OFFSET 13.0012 0 0
                CHANNELS 3 Zrotation Xrotation Yrotation
                JOINT RightForeArm
                {
                  OFFSET 28.7848 1.52588e-005 0
                  CHANNELS 3 Zrotation Xrotation Yrotation
                  JOINT RightHand
                  {
                    OFFSET 26.5688 1.52588e-005 0
                    CHANNELS 3 Zrotation Xrotation Yrotation
                    End Site
                    {
                      OFFSET 0 0 0
                    }
                  }
                }
              }
            }
            JOINT LeftShoulder
            {
              OFFSET 2.38034 -1.29275 -3.75231
              CHANNELS 3 Zrotation Xrotation Yrotation
              JOINT LeftArm
              {
                OFFSET 16.3182 6.10351e-005 0
                CHANNELS 3 Zrotation Xrotation Yrotation
                JOINT LeftForeArm
                {
                  OFFSET 27.0901 0 0
                  CHANNELS 3 Zrotation Xrotation Yrotation
                  JOINT LeftHand
                  {
                    OFFSET 24.5451 1.52588e-005 0
                    CHANNELS 3 Zrotation Xrotation Yrotation
                    End Site
                    {
                      OFFSET 0 0 0
                    }
                  }
                }
              }
            }
            JOINT Neck
            {
              OFFSET 5.0226 -0.0266342 0
              CHANNELS 3 Zrotation Xrotation Yrotation
              JOINT Head
              {
                OFFSET 6.69363 2.86102e-005 0
                CHANNELS 3 Zrotation Xrotation Yrotation
                End Site
                {
                  OFFSET 0 0 0
                }
              }
            }
          }
        }
      }
    }
  }
}
MOTION
Frames:	6
Frame Time:	0.0416667
-2774.26 410.873 -3453.13 -87.0072 48.8431 -93.2028 179.2 47.9236 125.92 -4.86794 12.5964 -5.44058 55.4558 -22.9566 -19.5863 -13.4353 -13.749 -53.3545 145.143 -38.4784 26.1144 -3.62158 -32.0919 0.325381 111.623 28.0551 0.251706 11.1408 -3.53738 10.9322 0.445237 7.15736 -89.6107 12.556 1.07 0.653345 0.885362 1.09773 0.605616 -21.6508 0.824177 0.944727 -1.63813 0.824174 0.944724 94.4406 -25.1999 -99.1604 47.584 -8.74589 2.35416 -22.0262 -11.8889 -55.5261 2.73751 -0.0440385 3.9348 -93.615 -28.4989 65.8368 -44.4333 4.09303 -0.313727 4.78291 16.3641 -18.1083 2.61152 0.257089 3.60482 10.2096 4.19231 0.455853 -1.82834 4.08311 1.99836 
-2633.9 393.858 -3288.26 -84.9714 49.4121 -95.6964 177.341 65.3653 119.304 -5.21071 12.4257 -4.47087 40.3464 -16.5305 -19.8908 -13.8171 -13.7099 -53.7788 138.867 -46.6003 27.7209 -4.65823 -41.0257 0.308093 115.937 12.3551 -0.739522 16.7859 -2.69715 11.6692 0.827796 6.99066 -89.4734 12.8851 1.89622 0.826029 1.21529 1.93073 0.741738 -21.3256 1.5603 1.35779 -1.31295 1.5603 1.35779 94.6323 -24.4424 -98.9619 45.5229 -8.97894 -1.97607 -22.7311 -11.0081 -58.0648 3.12043 -0.038147 3.50799 -93.4506 -28.8612 66.3109 -46.7708 2.30116 2.86917 5.5179 14.4123 -15.0066 2.02464 0.266632 4.89715 10.6029 2.96238 0.765455 -2.10287 2.78871 1.70089 
-2549.44 381.536 -3192.99 -83.8856 51.3991 -94.7582 169.335 72.8904 127.784 -4.32963 10.6139 -6.12559 39.6492 -13.4706 -18.3865 -6.55103 -12.1938 -49.6746 146.465 -45.6682 36.0298 -5.93575 -36.4104 1.36663 128.797 7.94453 -2.81006 16.5271 -3.49051 15.8482 1.19445 7.16016 -89.7724 12.5619 2.48112 0.159428 0.893417 2.48571 0.0500061 -21.6596 2.3184 0.898133 -1.64691 2.31842 0.89814 94.4443 -23.4507 -99.6827 42.6972 -8.34518 -7.2372 -22.659 -10.6071 -57.5316 4.6279 0.134672 4.88943 -93.6239 -29.6643 66.3374 -48.103 1.52816 2.51371 5.9698 9.25937 -15.7469 2.57641 0.310928 4.9088 10.858 2.88746 1.96364 -0.906514 2.49224 2.52223 
-2466.29 394.229 -3093.56 -85.2386 50.2979 -92.3275 168.746 73.3467 130.545 -1.98341 8.20421 -9.19071 43.9932 -9.27504 -14.6393 -0.749996 -9.76195 -48.628 152.057 -43.7768 41.6335 -5.86032 -27.2913 2.7144 140.27 11.6216 -6.24601 7.27179 -4.86871 13.5429 1.05398 7.4512 -90.0868 11.976 2.05474 -0.395362 0.306527 2.03533 -0.485445 -22.2416 2.07851 0.240731 -2.22891 2.07853 0.240725 94.299 -23.0545 -100.132 40.7563 -7.93726 -8.86936 -22.2719 -10.5708 -57.0457 6.47771 0.308451 5.45485 -93.8245 -30.0921 66.1518 -48.9801 1.57417 0.591318 7.47669 9.25003 -19.1958 3.80625 0.373782 4.19631 10.8981 3.49885 2.88799 -0.229264 2.94163 3.43988 
-2298.81 388.661 -2921.66 -85.6976 47.5357 -93.2629 175.74 57.3858 126.249 -5.3198 12.8221 -4.00886 48.9436 -19.8886 -20.819 -2.39372 -11.2578 -46.9339 158.672 -32.1984 43.8957 -5.97962 -20.4377 3.4787 133.339 21.7535 -7.87313 2.21092 -5.75107 13.2086 0.706552 7.45517 -89.9346 11.9649 1.4355 -0.0253356 0.294772 1.433 -0.0885099 -22.2464 1.37675 0.407351 -2.23374 1.37673 0.407347 94.2046 -24.2025 -99.9813 41.8264 -7.57698 -4.72562 -23.9597 -12.3537 -54.9546 7.13941 0.240642 4.38296 -94.0974 -29.8696 65.5459 -47.3417 1.95473 -1.08756 8.15297 9.57967 -21.8873 6.70428 0.508076 3.16058 10.7513 3.32614 2.35187 -0.140327 2.8774 2.97533 
-2092.91 400.778 -2697.09 -85.9861 45.7949 -93.5381 -171.855 10.5514 136.864 -4.8173 12.7928 -2.13006 80.0954 -33.3093 -18.3015 -2.17601 -10.9282 -47.4743 172.806 3.23682 45.0115 -5.8001 -17.5127 4.30201 94.5492 37.6291 1.62173 0.785753 -6.07935 13.3635 0.474752 7.2347 -89.9215 12.4046 0.980746 0.0453189 0.734007 0.981783 0.00209991 -21.8038 0.921766 0.337996 -1.79119 0.921778 0.337998 94.3673 -24.5459 -99.5154 44.2634 -7.37021 2.13966 -21.5914 -15.1726 -49.0068 9.30939 0.417104 4.80466 -93.9938 -29.5246 65.585 -45.7619 1.87129 -3.02676 8.65235 8.95818 -23.8091 6.69874 0.557315 3.78376 9.90448 3.7266 2.32651 -1.55205 3.27053 3.24162 
